<svg id="Calque_1" data-name="Calque 1" xmlns="http://www.w3.org/2000/svg" viewBox="0 0 100 100"><defs><style>.cls-1,.cls-2{fill-rule:evenodd;}.cls-2{fill:none;stroke:#000;stroke-linejoin:bevel;stroke-width:11px;}</style></defs><title>Plan de travail 3</title><path class="cls-1" d="M45.38,62.28a4.44,4.44,0,0,1-2.17,2.13,11.57,11.57,0,0,1-5,.93H35.78V67H51.1V7H22.36V23.25h2A16,16,0,0,1,30.2,13c2.19-1.73,5.72-2.57,10.56-2.57H46V56.71Q46,61.24,45.38,62.28Z"/><path class="cls-1" d="M47.69,7V67H66.47V65.34H64.08a11.13,11.13,0,0,1-4.86-.87,5.18,5.18,0,0,1-2.39-2q-.59-1.16-.59-5.75V10.46H61.6c3.35,0,5.7.25,7,.8a14,14,0,0,1,5.69,3.91c1.38,1.63,2.62,4.31,3.77,8.07H80V7Z"/><path class="cls-2" d="M5.55,74.88c6,5.29,22,18,44.66,18.12S89,80.54,95,75.31"/></svg>